<svg width="76" height="73" viewBox="0 0 76 73" fill="none" xmlns="http://www.w3.org/2000/svg">
<path fill-rule="evenodd" clip-rule="evenodd" d="M61.3889 46.8547C61.1096 45.8988 61.0408 43.4871 59.9504 42.3472C58.5497 42.551 55.4683 44.624 55.4683 44.624C55.4683 44.624 55.7616 45.6139 56.35 46.7844C57.3841 48.8406 59.3385 51.46 62.276 50.2895C63.5856 49.7676 64.1778 48.5838 64.3952 47.2379C64.8332 44.5223 63.7205 41.139 63.7205 41.139C63.7205 41.139 63.3788 41.0758 62.9412 41.0708C62.5141 41.0659 62.0053 41.1287 61.6071 41.3582C61.4013 41.476 61.2204 41.628 61.1104 41.8551C61.4271 43.2922 62.0447 45.9779 61.8867 46.9178C61.72 46.9019 61.5568 46.8687 61.3889 46.8547ZM64.3952 47.2379L64.3563 47.2315L64.3177 47.2247L64.2788 47.2183L64.2399 47.2119L64.2013 47.2058L64.1624 47.1994L64.1235 47.1934L64.0845 47.1872L64.0456 47.1812L64.0067 47.1752L63.9677 47.1691L63.9288 47.1631L63.8899 47.1574L63.8509 47.1518L63.812 47.146L63.7731 47.1404L63.7337 47.1347L63.6948 47.1291L63.6559 47.1234L63.6165 47.1182L63.5776 47.1128L63.5384 47.1075L63.4995 47.1023L63.4601 47.097L63.4212 47.0916L63.3819 47.0864L63.3429 47.0815L63.3036 47.0762L63.2643 47.0712L63.2253 47.0663L63.1861 47.0614L63.1468 47.0566L63.1075 47.0516L63.0685 47.0467L63.0292 47.0422L62.9899 47.0372L62.9507 47.0327L62.9113 47.0282L62.872 47.0236L62.8327 47.0187L62.7933 47.0142L62.7541 47.01L62.7148 47.0055L62.6755 47.001L62.6361 46.9964L62.5968 46.9923L62.5572 46.9878L62.5179 46.9836L62.4785 46.9794L62.4392 46.9748L62.3996 46.9707L62.3603 46.9666L62.3209 46.9624L62.2813 46.9583L62.242 46.954L62.2027 46.9503L62.1629 46.9462L62.1236 46.942L62.084 46.9379L62.0447 46.934L62.0053 46.9299L61.9657 46.9262L61.9264 46.9219L61.8867 46.9178" fill="#90438F"/>
<path fill-rule="evenodd" clip-rule="evenodd" d="M67.961 46.1722C68.0513 46.8596 68.3801 47.5911 68.8428 48.3197C71.1689 49.0445 73.3876 50.0246 75.4754 51.2484C75.1416 48.0453 74.1044 42.4046 72.7321 37.3069C70.8492 38.4026 68.8841 39.298 66.8618 39.9946C67.2495 41.7013 67.6418 43.7474 67.961 46.1722Z" fill="#90438F"/>
<path fill-rule="evenodd" clip-rule="evenodd" d="M28.0651 58.9564C25.1437 53.6955 21.2564 43.404 22.0469 42.9688C23.1146 42.382 26.3152 54.6247 30.6157 54.3578C34.1046 54.1411 39.0176 45.1635 42.0839 38.5684C39.5319 37.3256 37.0954 35.7545 34.8732 33.7813C26.3226 26.1896 22.852 14.9983 24.6116 4.35282C23.6614 4.53735 23.6475 4.54002 23.6475 4.54002C23.6475 4.54002 21.8345 5.64882 19.9203 3.33268C18.9629 2.17468 18.2528 1.44415 18.2528 1.44415C18.2528 1.44415 16.8406 0.0928153 15.1314 1.08455C13.4221 2.07588 0.726104 9.72709 0.726104 9.72709C0.726104 9.72709 -0.445612 10.4636 0.187855 11.7524L0.821176 13.0419C0.821176 13.0419 1.49571 14.9922 3.45291 14.4276C5.40998 13.863 10.7243 12.095 10.7243 12.095C10.7243 12.095 12.2266 11.337 11.819 13.687C11.4116 16.0362 9.38945 24.4632 9.38945 24.4632C9.38945 24.4632 8.05757 27.9767 10.3241 30.6035C12.5898 33.2303 16.7915 38.5035 16.7915 38.5035C16.7915 38.5035 18.1262 39.1951 18.4688 44.7082C18.4688 44.7082 18.3315 47.2624 19.592 49.7296C20.2437 51.0063 22.7697 56.725 25.0585 61.952C26.006 60.9215 27.0076 59.9223 28.0651 58.9564Z" fill="#90438F"/>
<path fill-rule="evenodd" clip-rule="evenodd" d="M52.3178 41.5911C49.2941 41.2346 46.3182 40.4405 43.4761 39.2234C41.8504 43.4923 39.9998 47.9867 38.1348 51.8594C41.7933 49.9322 45.5878 48.5398 49.4034 47.7002C49.7484 47.0434 50.0816 46.3862 50.402 45.7319C51.1428 44.2166 51.765 42.8499 52.3178 41.5911Z" fill="#90438F"/>
<path fill-rule="evenodd" clip-rule="evenodd" d="M33.9718 70.9735C36.558 67.4918 44.2166 57.595 49.404 47.7004C45.5877 48.54 41.793 49.932 38.1348 51.8596C35.3957 57.5476 32.6328 61.87 30.5368 62.0002C29.9936 62.034 29.0877 60.7972 28.0646 58.9562C27.008 59.9227 26.0062 60.9212 25.0581 61.9516C27.1925 66.8272 29.1202 71.2748 29.1202 71.2748C29.1202 71.2748 31.2137 74.6866 33.9718 70.9735Z" fill="#F07C00"/>
<path fill-rule="evenodd" clip-rule="evenodd" d="M75.4072 53.8521C75.6361 53.838 75.6409 52.8408 75.4753 51.2481C73.388 50.0249 71.1694 49.0448 68.8428 48.3193C70.6312 51.1371 74.5277 53.9068 75.4072 53.8521Z" fill="#F07C00"/>
<path fill-rule="evenodd" clip-rule="evenodd" d="M38.4308 17.4141C39.0776 17.6527 39.9142 17.0015 40.2976 15.9602C40.6807 14.9194 40.4671 13.8814 39.8203 13.6433C39.1727 13.4046 38.3368 14.0558 37.9532 15.0974C37.5698 16.1382 37.7832 17.1759 38.4308 17.4141Z" fill="#90438F"/>
<path fill-rule="evenodd" clip-rule="evenodd" d="M40.9766 17.0223C40.1812 19.1819 38.4475 20.5317 37.1052 20.0369C35.763 19.5423 35.3194 17.3911 36.1152 15.2315C36.9106 13.0717 38.6439 11.7215 39.9861 12.2162C41.329 12.7109 41.772 14.8625 40.9766 17.0223ZM68.4445 27.0247C65.1299 23.8254 63.3715 23.2565 63.2174 22.0782C61.9912 23.1337 60.3255 24.0641 58.3562 24.6582C53.8158 26.0275 49.5307 25.1357 48.7851 22.6649C48.0399 20.1947 51.1166 17.0811 55.6576 15.7113C57.5754 15.1327 59.4297 14.9798 61.0087 15.1565C57.3435 13.9598 51.3392 12.007 51.3392 12.007C51.3392 12.007 49.3134 11.4687 50.1831 9.42247C51.0521 7.37647 50.1151 6.54901 48.8888 6.40368C47.6619 6.25821 47.2967 5.72794 48.372 5.21847C49.4472 4.70847 49.4338 4.48821 51.2184 4.70967C53.0031 4.93061 55.9312 5.74514 56.6278 4.48394C57.3244 3.22327 54.9542 2.48501 52.4804 1.86394C50.0071 1.24287 46.5138 0.241805 46.5138 0.241805C46.5138 0.241805 45.0119 -0.771392 42.9294 1.35021L40.8478 3.47194C40.8478 3.47194 39.6137 4.98714 35.3623 4.25487C31.111 3.52287 28.6782 3.56341 26.1631 4.05194C25.4659 4.18687 24.9756 4.28207 24.6116 4.35247C22.8522 14.9989 26.3227 26.1902 34.8731 33.7813C37.0954 35.7545 39.5312 37.3255 42.0838 38.5682C42.7963 37.0359 43.4094 35.6317 43.8814 34.4963C46.3854 28.4743 54.0403 24.9842 52.9517 25.9195C51.5057 27.1603 46.7359 30.5555 44.9283 35.3167C44.4725 36.5761 43.9832 37.8895 43.4758 39.2233C46.3186 40.4409 49.2944 41.2343 52.3176 41.591C55.6042 34.1083 56.1271 30.9521 60.4219 29.927C63.8618 29.1059 64.9874 32.8742 65.3403 34.2703C65.6128 35.3499 66.2314 37.2193 66.8618 39.9946C68.8846 39.2981 70.8497 38.4026 72.7327 37.3065C71.4843 32.6703 69.9622 28.4903 68.4445 27.0247Z" fill="#F07C00"/>
<path fill-rule="evenodd" clip-rule="evenodd" d="M55.6575 15.7116C51.1166 17.0813 48.0399 20.1949 48.7851 22.665C49.5307 25.1353 53.8158 26.0277 58.3562 24.6584C60.3255 24.0638 61.9912 23.134 63.2174 22.0784C63.1843 21.8286 63.1978 21.561 63.3126 21.2246C63.4224 20.9036 63.6512 20.6644 63.3751 20.2249C62.8651 19.9261 62.5522 19.9438 62.0176 19.977C61.2456 20.0249 61.0798 20.9209 60.4802 21.9544C59.8799 22.9873 59.1086 23.0358 57.7786 23.0076C56.4486 22.9793 57.3595 19.8236 56.0295 19.796C54.6995 19.7678 53.755 20.601 53.755 20.601C53.755 20.601 50.2942 23.6937 49.5358 23.4261C48.7766 23.1592 50.9847 20.5521 52.2948 18.4784C53.6052 16.4044 55.2911 16.8716 56.3063 17.1218C58.2308 17.5976 58.2199 18.5249 59.6596 18.5464C61.1002 18.568 60.6195 17.076 62.8589 17.4894C63.558 17.619 63.5826 18.4414 64.4111 18.1014C65.0684 17.422 64.4344 16.281 63.315 15.9122C62.8326 15.7533 62.0016 15.4816 61.0087 15.1568C59.4295 14.98 57.5754 15.1329 55.6575 15.7116Z" fill="#90438F"/>
</svg>
